<svg xmlns="http://www.w3.org/2000/svg" viewBox="0 0 975.96 97.9">
    <title>logo-desktop</title>
    <g id="Layer_2" data-name="Layer 2">
        <g id="Слой_1" data-name="Слой 1" fill="#0d403b">
            <g id="z1VM5i.tif">
                <path d="M0,55c.52-1.7,1.06-3.4,1.56-5.11C6.15,34,17.47,25.89,33.2,23.52c16.14-2.42,34,2.73,42.61,18.65l-12.08,7C56,38.94,45.84,35.74,33.69,38c-10.86,2-18,11.47-17.6,23.22S24.4,82,35.39,83c10.21.93,17.72.83,28.55-11.25l11.83,6.78C68.26,93.57,51,99,36.29,97.66c-13.63-1.2-25.12-6.5-31.77-19.23-2-3.87-3-8.27-4.52-12.43Z"/>
                <path d="M392,0l6.59,8.63c-10.21,12.23-31.86,12.27-42.1-.31l7-7.45C376.78,7,384.87,6.65,391,0Z"/>
                <path d="M341.69,96V25.1h15.66V74.27c7.81-9.07,14.63-16.95,21.41-24.86,6.39-7.46,12.72-15,19.16-22.4.8-.93,2-2,3.11-2.07,4.61-.23,9.23-.1,14.13-.1V95.6H399.39V46.89c-8.15,9.44-15.28,17.69-22.4,26-5.54,6.43-11.25,12.73-16.52,19.39-2.33,3-4.79,4.13-8.44,3.81C348.73,95.76,345.4,96,341.69,96Z"/>
                <path d="M168.84,25.82c16.91,0,33.66-1.36,50.06.41,14.13,1.53,22.49,15.26,21,29.36a27,27,0,0,1-26.51,24.34c-9.3.27-18.61,0-28.58,0V95.74H168.84Zm16,39.27c9.6,0,18.72.23,27.81-.09,6.17-.21,10.38-4.67,11.13-10.76s-2.63-13-8.23-13.74c-10.08-1.28-20.33-1.19-30.71-1.68Z"/>
                <path d="M329.23,60.17c0,21.62-17.13,37.84-39.87,37.73-22.47-.11-40.23-16.68-40-37.3C249.69,38.78,266.46,23,289.47,23,312.23,23,329.21,38.87,329.23,60.17ZM289.46,36.9c-14.45,0-23.9,9.37-23.79,23.55s9.64,23.61,24,23.57c14.13,0,23.54-9.65,23.49-24C313.07,46.07,303.68,36.89,289.46,36.9Z"/>
                <path d="M597.11,96c-5.11,0-9.78.32-14.35-.19-1.47-.17-3.39-2.34-3.88-4-1.63-5.4-4.61-7.27-10.43-6.95-10.79.58-21.64.25-32.46.11-2.82,0-5.09.44-5.64,3.46C529.1,95.3,524.81,97,518.52,96c-2.59-.38-5.27-.06-8.54-.06,3.91-9.1,7.6-17.75,11.35-26.37,5.88-13.53,11.93-27,17.62-40.6,1.4-3.34,3.21-4.46,6.7-4.28a158.93,158.93,0,0,0,16.48,0c3.66-.2,5.55.89,7,4.46,8.64,20.82,17.58,41.51,26.39,62.26C596.11,92.77,596.49,94.17,597.11,96ZM569.36,70.86c-4.14-10.3-8.05-20.23-12.2-30.06-.39-.93-2.27-1.71-3.43-1.68s-3.06.84-3.48,1.81c-4.21,9.82-8.19,19.74-12.35,29.93Z"/>
                <path d="M501.52,24.8c-6.25,9.12-11.93,17.42-17.64,25.7-5,7.23-5,7.21-.2,14.68,6.41,10,12.8,20,19.67,30.8-6.33,0-11.76.17-17.17-.13-1.24-.07-2.74-1.54-3.51-2.75-5.09-8-9.89-16.14-15.11-24A8,8,0,0,0,462.24,66c-5.75-.4-11.55-.15-17.74-.15V95.6H428.72V25.07h15.61V51c6.85,0,13.14.16,19.4-.14,1.24-.06,2.67-1.7,3.54-3,4.58-6.52,9.14-13.07,13.44-19.78a6.51,6.51,0,0,1,6.52-3.39C491.65,25,496.08,24.8,501.52,24.8Z"/>
                <path d="M157.8,25.18V39H129.1V95.62H113V39.11H84.34V25.18Z"/>
            </g>
            <path d="M680.89,23.09c2.33.56,4.71,1,7,1.71,10.43,3.46,15.86,13.67,12.53,23.93-.82,2.55-2.65,4.77-4,7.11,1.8,1.67,4.31,3.36,6,5.66,8.62,11.63,3,29.32-10.94,34.25a30.85,30.85,0,0,1-9.8,1.72c-17,.17-34.11.08-51.17.09V23.09ZM647.43,82.4c11.71,0,23.09.09,34.47,0,4.81-.06,7.89-3.18,8-7.54.15-5.23-2.81-8.19-8.62-8.24-9.8-.1-19.59,0-29.38,0h-4.49Zm0-30.66c10.87,0,21.47,0,32.06-.06a5.72,5.72,0,0,0,3.2-1.41,6.93,6.93,0,0,0,1.85-7.64c-1-2.85-3.12-4.34-6.74-4.36-9.77-.07-19.54,0-29.31,0a4.59,4.59,0,0,0-1.06.27Z"/>
            <path d="M785,23.09V38.27H734.79V52.11H780v15.1H734.83V81.94h52.25V97.39H717.85V23.09Z"/>
            <path d="M976,97.56c-5.22,0-10.44-.08-15.66,0a2.54,2.54,0,0,1-2.83-2A73.15,73.15,0,0,0,954.13,88a3.36,3.36,0,0,0-2.38-1.6q-21.12-.14-42.23,0c-.89,0-1.77,1.11-2.65,1.71a.61.61,0,0,0-.15.23c-1.37,3-2,7.23-4.32,8.74s-6.49.43-9.84.46c-2.42,0-4.83,0-7.7,0l6.39-14.73,25.92-59.73h27.44c.19.61.33,1.25.58,1.84q12.52,29.48,25.09,59c1.8,4.22,3.78,8.37,5.68,12.56Zm-29.25-26c-.13-.48-.19-.83-.31-1.15-4.07-10.15-8.19-20.28-12.15-30.46-.69-1.75-1.76-1.93-3.23-1.79s-3.22-.64-4.12,1.7c-2.41,6.32-5.09,12.54-7.67,18.79-1.76,4.26-3.54,8.51-5.37,12.91Z"/>
            <path d="M875.74,23.09Q868.39,33.94,861,44.78c-2.51,3.69-5,7.41-7.67,11-1.1,1.47-.91,2.48,0,3.9,8,12.42,16,24.88,24.16,37.64-.92.1-1.59.23-2.25.24-4.85,0-9.7-.1-14.55.06a4.35,4.35,0,0,1-4.46-2.42c-5.4-9-11-17.89-16.44-26.89A4.19,4.19,0,0,0,835.59,66c-6.31.14-12.63,0-19.23,0V97.38H799.59V23.09h16.8V50.58c7,0,13.72.06,20.42-.07A3.61,3.61,0,0,0,839,48.87c5.93-8.56,11.79-17.18,17.66-25.78Z"/>
        </g>
    </g>
</svg>