<svg xmlns="http://www.w3.org/2000/svg" viewBox="0 0 281.48 90.45">
    <title>logo-mobile</title>
    <g id="Layer_2" data-name="Layer 2">
        <g id="Слой_1" data-name="Слой 1" fill="#0d403b">
            <g id="z1VM5i.tif">
                <path d="M0,23.66c.24-.8.5-1.6.73-2.4C2.9,13.74,8.24,9.94,15.65,8.83c7.61-1.15,16,1.28,20.09,8.79L30,20.94c-3.63-4.85-8.43-6.35-14.16-5.31-5.12.94-8.51,5.41-8.3,10.95s3.92,9.82,9.1,10.29c4.81.43,8.36.39,13.46-5.31l5.58,3.2c-3.54,7.09-11.7,9.62-18.61,9-6.43-.56-11.84-3.06-15-9.06A44.41,44.41,0,0,1,0,28.85Z"/>
                <path d="M161.07,43V9.57h7.38V32.75c3.69-4.28,6.9-8,10.1-11.72,3-3.52,6-7.06,9-10.56a2.59,2.59,0,0,1,1.47-1c2.17-.1,4.35,0,6.65,0V42.8h-7.43v-23L177.71,32.07c-2.61,3-5.3,6-7.78,9.15a4.15,4.15,0,0,1-4,1.79C164.39,42.88,162.82,43,161.07,43Z"/>
                <path d="M79.59,9.91c8,0,15.87-.64,23.6.19,6.66.72,10.6,7.2,9.88,13.84a12.69,12.69,0,0,1-12.5,11.47c-4.38.13-8.77,0-13.47,0v7.43H79.59Zm7.55,18.51c4.52,0,8.82.11,13.11,0a5.42,5.42,0,0,0,5.25-5.08c.35-2.84-1.25-6.14-3.88-6.47-4.76-.6-9.59-.56-14.48-.8Z"/>
                <path d="M155.2,26.1c0,10.19-8.08,17.84-18.8,17.79s-19-7.87-18.83-17.59c.13-10.28,8-17.7,18.89-17.71S155.19,16.06,155.2,26.1Zm-18.75-11c-6.81,0-11.27,4.42-11.21,11.1s4.54,11.13,11.29,11.11,11.1-4.55,11.08-11.3C147.58,19.46,143.15,15.13,136.45,15.13Z"/>
                <path d="M281.48,43a62.8,62.8,0,0,1-6.77-.09A3,3,0,0,1,272.88,41c-.77-2.54-2.17-3.42-4.91-3.28-5.09.28-10.2.12-15.31.06-1.32,0-2.39.2-2.65,1.63-.59,3.23-2.62,4-5.58,3.58a29.62,29.62,0,0,0-4,0c1.85-4.29,3.59-8.36,5.35-12.43,2.78-6.38,5.63-12.72,8.31-19.14a2.8,2.8,0,0,1,3.16-2,74.59,74.59,0,0,0,7.77,0,2.88,2.88,0,0,1,3.31,2.1c4.07,9.82,8.28,19.57,12.44,29.35C281,41.47,281.19,42.13,281.48,43ZM268.39,31.14c-1.95-4.85-3.79-9.54-5.75-14.17a2,2,0,0,0-1.61-.79,2.08,2.08,0,0,0-1.64.85c-2,4.63-3.86,9.31-5.83,14.11Z"/>
                <path d="M236.42,9.43c-2.95,4.3-5.63,8.21-8.32,12.11-2.35,3.41-2.35,3.4-.09,6.92,3,4.72,6,9.45,9.27,14.52-3,0-5.55.08-8.1-.06a2.72,2.72,0,0,1-1.65-1.3c-2.4-3.75-4.66-7.6-7.12-11.32a3.74,3.74,0,0,0-2.51-1.47c-2.71-.19-5.44-.07-8.36-.07v14H202.1V9.55h7.35V21.78c3.24,0,6.2.08,9.15-.07.59,0,1.26-.8,1.67-1.39,2.16-3.07,4.31-6.16,6.33-9.32a3.08,3.08,0,0,1,3.08-1.6C231.76,9.5,233.85,9.43,236.42,9.43Z"/>
                <path d="M74.39,9.61V16.1H60.86V42.81H53.28V16.18H39.76V9.61Z"/>
            </g>
            <g id="z1VM5i.tif-2" data-name="z1VM5i.tif">
                <path d="M184.67,5.08H173.39V0h11.25"/>
            </g>
            <path d="M23.92,55.18c1.1.26,2.22.45,3.29.81a8.82,8.82,0,0,1,5.91,11.28,19.52,19.52,0,0,1-1.89,3.35,19.45,19.45,0,0,1,2.83,2.67c4.07,5.48,1.41,13.82-5.15,16.14a14.3,14.3,0,0,1-4.62.81c-8,.08-16.08,0-24.12,0V55.18Zm-15.78,28c5.53,0,10.89,0,16.25,0a3.57,3.57,0,0,0,3.79-3.55c.07-2.47-1.33-3.86-4.07-3.89-4.62,0-9.23,0-13.85,0H8.14Zm0-14.45c5.13,0,10.12,0,15.12,0a2.69,2.69,0,0,0,1.5-.67,3.25,3.25,0,0,0,.87-3.6,3,3,0,0,0-3.17-2c-4.6,0-9.21,0-13.82,0a2.58,2.58,0,0,0-.5.12Z"/>
            <path d="M73,55.18v7.16H49.33v6.52h21.3V76H49.34v6.94H74v7.29H41.34v-35Z"/>
            <path d="M163,90.28c-2.46,0-4.93,0-7.39,0a1.18,1.18,0,0,1-1.33-.92,33.86,33.86,0,0,0-1.58-3.6A1.55,1.55,0,0,0,151.6,85q-9.94-.06-19.91,0c-.41,0-.83.53-1.25.81a.2.2,0,0,0-.06.11c-.65,1.43-.94,3.41-2,4.12s-3.06.2-4.64.22c-1.14,0-2.28,0-3.63,0,1-2.4,2-4.67,3-6.94q6.11-14.09,12.22-28.16h12.94a8.75,8.75,0,0,0,.27.87q5.91,13.89,11.83,27.79c.85,2,1.78,3.94,2.68,5.92ZM149.23,78.05c-.07-.23-.09-.4-.15-.55-1.92-4.78-3.86-9.56-5.73-14.36a1.23,1.23,0,0,0-1.52-.84c-.72.07-1.52-.3-1.94.8-1.14,3-2.4,5.91-3.62,8.86-.83,2-1.66,4-2.53,6.09Z"/>
            <path d="M115.77,55.18q-3.47,5.12-6.94,10.22c-1.18,1.74-2.35,3.5-3.61,5.18a1.37,1.37,0,0,0,0,1.84c3.78,5.85,7.53,11.73,11.38,17.74-.43,0-.74.11-1.06.12-2.28,0-4.57,0-6.85,0a2.06,2.06,0,0,1-2.11-1.13c-2.54-4.25-5.19-8.44-7.74-12.68a2,2,0,0,0-2-1.1c-3,.07-6,0-9.07,0V90.2h-7.9v-35h7.91v13c3.31,0,6.47,0,9.63,0a1.73,1.73,0,0,0,1-.77c2.8-4,5.56-8.1,8.33-12.16Z"/>
        </g>
    </g>
</svg>