<?xml version="1.0" encoding="UTF-8"?><!DOCTYPE svg PUBLIC "-//W3C//DTD SVG 1.1//EN" "http://www.w3.org/Graphics/SVG/1.1/DTD/svg11.dtd"><svg xmlns="http://www.w3.org/2000/svg"><defs><style>.cls-1{fill:none}.cls-2{clip-path:url(#clip-path)}</style><clipPath id="clip-path"><path class="cls-1" d="M0 0h53.2v43.66H0z"/></clipPath></defs><symbol id="icon-arrow-left" viewBox="0 0 28.04 45.46"><title>arrow-left</title><g data-name="Layer 2"><path d="M0 22.73l22.73 22.73L28 40.15 10.6 22.73 28 5.31 22.73 0z" data-name="&#x421;&#x43B;&#x43E;&#x439; 1"/></g></symbol><symbol id="icon-arrow-right" viewBox="0 0 28.04 45.46"><title>arrew-right</title><g data-name="Layer 2"><path d="M28 22.73L5.31 0 0 5.31l17.44 17.42L0 40.15l5.31 5.31z" data-name="&#x421;&#x43B;&#x43E;&#x439; 1"/></g></symbol><symbol id="icon-arrow" viewBox="0 0 67.97 44.42"><title>arrow</title><g data-name="Layer 2"><path d="M0 19.1v6.22h56L41.31 40l4.45 4.45L68 22.21 45.76 0l-4.45 4.45L56 19.11z" data-name="&#x421;&#x43B;&#x43E;&#x439; 1"/></g></symbol><symbol id="icon-bus" viewBox="0 0 36.25 43.04"><title>bus</title><g data-name="Layer 2"><path d="M0 31.71a6.48 6.48 0 0 0 2.27 5v4.07A2.14 2.14 0 0 0 4.54 43h2.25a2.14 2.14 0 0 0 2.27-2.27v-2.21h18.13v2.25A2.14 2.14 0 0 0 29.45 43h2.26A2.14 2.14 0 0 0 34 40.77V36.7a6.48 6.48 0 0 0 2.27-5V9.06C36.25 1.13 28.1 0 18.12 0S0 1.13 0 9.06zM7.93 34a3.4 3.4 0 0 1 0-6.79 3.4 3.4 0 1 1 0 6.79zm20.39 0a3.4 3.4 0 1 1 3.39-3.39A3.47 3.47 0 0 1 28.32 34zm3.39-13.59H4.54V9.06h27.17z" data-name="&#x421;&#x43B;&#x43E;&#x439; 1"/></g></symbol><symbol id="icon-card" viewBox="0 0 53.73 42.99"><title>card</title><g id="Layer_2" data-name="Layer 2"><path d="M48.35 0h-43A5.38 5.38 0 0 0 0 5.38v32.23A5.39 5.39 0 0 0 5.38 43h43a5.39 5.39 0 0 0 5.38-5.38V5.38A5.38 5.38 0 0 0 48.35 0zm0 37.61h-43V21.49h43zm0-26.87h-43V5.38h43z" class="cls-2" id="&#x421;&#x43B;&#x43E;&#x439;_1" data-name="&#x421;&#x43B;&#x43E;&#x439; 1"/></g></symbol><symbol id="icon-cart" viewBox="0 0 13 14"><title>cart</title><path d="M1 1v12h11V1H1zm12-1v14H0V0h13z"/><path d="M5.954 9.65L3 5h1.163l2.34 3.798L8.837 5H10L7.04 9.65z"/></symbol><symbol id="icon-check" viewBox="0 0 63.57 48.4"><title>check</title><g data-name="Layer 2"><path d="M20.23 38.29L5.06 23.12 0 28.17 20.23 48.4 63.57 5.06 58.52 0z" data-name="&#x421;&#x43B;&#x43E;&#x439; 1"/></g></symbol><symbol id="icon-cross" viewBox="0 0 42.42 42.42"><title>cross_1</title><g data-name="Layer 2"><path d="M37.12 42.42L21.21 26.5 5.29 42.42 0 37.12l15.91-15.91L0 5.29 5.29 0l15.92 15.91L37.12 0l5.3 5.29L26.5 21.21l15.92 15.91z" data-name="&#x421;&#x43B;&#x43E;&#x439; 1"/></g></symbol><symbol id="icon-download" viewBox="0 0 41.82 50.8"><title>download</title><g data-name="Layer 2"><path d="M41.82 17.93H29.88V0H12v17.93H0l20.92 20.9zM0 44.81v6h41.82v-6z" data-name="&#x421;&#x43B;&#x43E;&#x439; 1"/></g></symbol><symbol id="icon-location" viewBox="0 0 1024 1024"><title/><path d="M512.064 567.872c105.888 0 192-86.144 192-192s-86.112-192-192-192-192 86.112-192 192 86.112 192 192 192zm0-352c88.256 0 160 71.744 160 160s-71.744 160-160 160-160-71.744-160-160 71.744-160 160-160zM512 0C300.224 0 128 170.112 128 384.032c0 224 192.032 453.152 332.032 614.208.512.64 22.976 25.76 50.752 25.76h2.464c27.744 0 50.24-25.12 50.752-25.76 140.064-161.056 332.064-390.176 332.064-614.208C896.064 170.112 723.808 0 512 0zm3.744 956.256c-.672.64-2.624 2.048-4.32 3.136-.32-.864-2.688-2.752-4.128-4.256C390.016 820.192 192 592.448 192 384.032 192 207.584 335.584 64 512 64c176.512 0 320.064 143.584 320.064 320.064 0 208.384-198.016 436.128-316.32 572.192z"/></symbol><symbol id="icon-marker" viewBox="0 0 38.2 54.57"><title>marker</title><g data-name="Layer 2"><path d="M19.11 0A19 19 0 0 0 0 19.11C0 33.3 19.11 54.57 19.11 54.57S38.2 33.3 38.2 19.11A19 19 0 0 0 19.11 0zm0 25.93a6.82 6.82 0 1 1 6.82-6.82 6.75 6.75 0 0 1-6.82 6.82z" data-name="&#x421;&#x43B;&#x43E;&#x439; 1"/></g></symbol><symbol id="icon-plus" viewBox="0 0 52.5 52.5"><title>plus</title><g data-name="Layer 2"><path d="M52.5 30H30v22.5h-7.49V30H0v-7.49h22.51V0H30v22.51h22.5z" data-name="&#x421;&#x43B;&#x43E;&#x439; 1"/></g></symbol><symbol id="icon-recycle" viewBox="0 0 45.34 62.35"><title>recicle</title><g data-name="Layer 2"><path d="M22.66 8.49V0L11.33 11.33l11.33 11.33v-8.49a17.05 17.05 0 0 1 17 17 18.12 18.12 0 0 1-2 7.93l4.25 4.25a25.35 25.35 0 0 0 3.4-12.18A22.75 22.75 0 0 0 22.66 8.49zm0 39.69a17.06 17.06 0 0 1-17-17 18.34 18.34 0 0 1 2-7.94L3.4 19A25.28 25.28 0 0 0 0 31.17a22.73 22.73 0 0 0 22.66 22.67v8.51L34 51 22.66 39.67z" data-name="&#x421;&#x43B;&#x43E;&#x439; 1"/></g></symbol><symbol id="icon-search" viewBox="0 0 57.65 57.65"><title>search</title><g data-name="Layer 2"><path d="M57.65 52.07L43.79 38.21a23.44 23.44 0 0 0 4.6-14 24.2 24.2 0 1 0-24.2 24.2 23.44 23.44 0 0 0 14-4.6l13.88 13.84zM7.45 24.19A16.76 16.76 0 1 1 24.19 41 16.66 16.66 0 0 1 7.45 24.19z" data-name="&#x421;&#x43B;&#x43E;&#x439; 1"/></g></symbol><symbol id="icon-warning" viewBox="0 0 49.99 49.71"><title>warning</title><g data-name="Layer 2"><path d="M35.07 0H14.63L0 14.63v20.71l14.63 14.37h20.71L50 35.07V14.63zM24.85 39.5a3.6 3.6 0 1 1 3.59-3.6 3.66 3.66 0 0 1-3.59 3.6zm2.77-11.88h-5.53V11h5.53z" data-name="&#x421;&#x43B;&#x43E;&#x439; 1"/></g></symbol><symbol id="icon-wire" viewBox="0 0 40.7 45.62"><title>wire</title><g data-name="Layer 2"><g data-name="&#x421;&#x43B;&#x43E;&#x439; 1"><path d="M21.78 0c.77.12 1.55.21 2.32.35a19.72 19.72 0 0 1 9.34 4.43 20.12 20.12 0 0 1 6.82 11.34 21.17 21.17 0 0 1 .44 4.42v22.14h-3v2.94h-3v-2.9h-3v-5.55a20.36 20.36 0 0 1-22.84 0v5.51H6v2.93H3v-2.9H.05a2.9 2.9 0 0 1 0-.38V19.78a19.15 19.15 0 0 1 4.3-12A20.14 20.14 0 0 1 17.39.2c.51-.08 1-.13 1.54-.2zM3 20.35A17.36 17.36 0 1 0 20.37 3 17.34 17.34 0 0 0 3 20.35zm3 19.31v-4.8a.83.83 0 0 0-.22-.41c-.9-1.06-1.78-2.12-2.58-3.17l-.2-.2v8.58zm31.7-8.48c-.94 1.13-1.89 2.26-2.82 3.41a.76.76 0 0 0-.12.45v4.27a2 2 0 0 0 0 .34h2.9z"/><path d="M6 20.31a14.4 14.4 0 1 1 14.28 14.42A14.42 14.42 0 0 1 6 20.31zm14.38 11.43a11.4 11.4 0 1 0-11.44-11.4 11.4 11.4 0 0 0 11.44 11.4z"/><path d="M28.79 20a8.45 8.45 0 1 1-9.34-8 8.48 8.48 0 0 1 9.34 8zm-8.43 5.76a5.45 5.45 0 1 0-5.45-5.42 5.43 5.43 0 0 0 5.45 5.44z"/></g></g></symbol></svg>