<svg xmlns="http://www.w3.org/2000/svg" viewBox="0 0 36.25 43.04"><title>bus</title><g id="Layer_2" data-name="Layer 2"><g id="Слой_1" data-name="Слой 1"><path d="M0,31.71a6.48,6.48,0,0,0,2.27,5v4.07A2.14,2.14,0,0,0,4.54,43H6.79a2.14,2.14,0,0,0,2.27-2.27V38.52H27.19v2.25A2.14,2.14,0,0,0,29.45,43h2.26A2.14,2.14,0,0,0,34,40.77V36.7a6.48,6.48,0,0,0,2.27-5V9.06C36.25,1.13,28.1,0,18.12,0S0,1.13,0,9.06ZM7.93,34a3.4,3.4,0,0,1,0-6.79,3.4,3.4,0,1,1,0,6.79Zm20.39,0a3.4,3.4,0,1,1,3.39-3.39A3.47,3.47,0,0,1,28.32,34Zm3.39-13.59H4.54V9.06H31.71Z"/></g></g></svg>