<svg xmlns="http://www.w3.org/2000/svg" viewBox="0 0 40.7 45.62"><title>wire</title><g id="Layer_2" data-name="Layer 2"><g id="Слой_1" data-name="Слой 1"><g id="BsxPag.tif"><path d="M21.78,0c.77.12,1.55.21,2.32.35a19.72,19.72,0,0,1,9.34,4.43,20.12,20.12,0,0,1,6.82,11.34,21.17,21.17,0,0,1,.44,4.42q0,10.83,0,21.66v.48h-3v2.94h-3v-2.9h-3V37.17a20.36,20.36,0,0,1-22.84,0v5.51H6v2.93H3V42.71H.05a2.9,2.9,0,0,1,0-.38c0-7.51,0-15,0-22.55a19.15,19.15,0,0,1,4.3-12A20.14,20.14,0,0,1,17.39.2c.51-.08,1-.13,1.54-.2ZM3,20.35A17.36,17.36,0,1,0,20.37,3,17.34,17.34,0,0,0,3,20.35Zm3,19.31c0-1.62,0-3.21,0-4.8a.83.83,0,0,0-.22-.41C4.88,33.39,4,32.33,3.2,31.28L3,31.08v8.58ZM37.7,31.18c-.94,1.13-1.89,2.26-2.82,3.41a.76.76,0,0,0-.12.45v4.27a2,2,0,0,0,0,.34h2.9Z"/><path d="M6,20.31A14.4,14.4,0,1,1,20.28,34.73,14.42,14.42,0,0,1,6,20.31ZM20.38,31.74A11.4,11.4,0,1,0,8.94,20.34,11.4,11.4,0,0,0,20.38,31.74Z"/><path d="M28.79,20A8.45,8.45,0,1,1,19.45,12,8.48,8.48,0,0,1,28.79,20Zm-8.43,5.76a5.45,5.45,0,1,0-5.45-5.42A5.43,5.43,0,0,0,20.36,25.78Z"/></g></g></g></svg>